<svg width="22" height="9" viewBox="0 0 22 9" fill="none" xmlns="http://www.w3.org/2000/svg">
<path d="M1.64645 4.64645C1.45119 4.84171 1.45119 5.15829 1.64645 5.35355L4.82843 8.53553C5.02369 8.7308 5.34027 8.7308 5.53553 8.53553C5.7308 8.34027 5.7308 8.02369 5.53553 7.82843L2.70711 5L5.53553 2.17157C5.7308 1.97631 5.7308 1.65973 5.53553 1.46447C5.34027 1.2692 5.02369 1.2692 4.82843 1.46447L1.64645 4.64645ZM22 4.5L2 4.5V5.5L22 5.5V4.5Z" fill="#FDD418"/>
<path d="M0.646446 3.64645C0.451185 3.84171 0.451185 4.15829 0.646446 4.35355L3.82843 7.53553C4.02369 7.7308 4.34027 7.7308 4.53553 7.53553C4.7308 7.34027 4.7308 7.02369 4.53553 6.82843L1.70711 4L4.53553 1.17157C4.7308 0.976311 4.7308 0.659728 4.53553 0.464466C4.34027 0.269204 4.02369 0.269204 3.82843 0.464466L0.646446 3.64645ZM21 3.5L1 3.5V4.5L21 4.5V3.5Z" fill="#0B141D"/>
</svg>
