<svg width="23" height="9" viewBox="0 0 23 9" fill="none" xmlns="http://www.w3.org/2000/svg">
<path d="M21.3524 4.29199C21.5465 4.09551 21.5445 3.77894 21.348 3.5849L18.1462 0.42283C17.9498 0.22879 17.6332 0.230765 17.4392 0.427241C17.2451 0.623718 17.2471 0.940294 17.4436 1.13433L20.2896 3.94506L17.4789 6.79108C17.2848 6.98755 17.2868 7.30413 17.4833 7.49817C17.6798 7.69221 17.9963 7.69024 18.1904 7.49376L21.3524 4.29199ZM1.00019 4.56542L20.9998 4.44064L20.9936 3.44066L0.993951 3.56544L1.00019 4.56542Z" fill="#FDD418"/>
<path d="M22.3587 5.28576C22.5527 5.08929 22.5507 4.77271 22.3542 4.57867L19.1525 1.4166C18.956 1.22256 18.6394 1.22454 18.4454 1.42102C18.2513 1.61749 18.2533 1.93407 18.4498 2.12811L21.2958 4.93883L18.4851 7.78485C18.291 7.98133 18.293 8.29791 18.4895 8.49195C18.686 8.68599 19.0026 8.68401 19.1966 8.48753L22.3587 5.28576ZM2.00642 5.55919L22.006 5.43441L21.9998 4.43443L2.00018 4.55921L2.00642 5.55919Z" fill="#0B141D"/>
</svg>
